<svg version="1.1" id="Layer_1" x="0px" y="0px" width="1000" height="787.5" viewBox="0 0 1000 787.5" enable-background="new 0 0 1000 936.5" xml:space="preserve" xmlns="http://www.w3.org/2000/svg" xmlns:svg="http://www.w3.org/2000/svg"><defs id="defs47"></defs><g id="g151"><path fill="#016bb1" d="m 24.9,562.1 13.8,-20.8 23.9,6.5 -15.6,-19 13.4,-20.6 -23.2,9.1 -16.1,-19 1.4,24.7 L 0,531.4 23.5,537.6 Z M 21.6,470.3 39.1,452.3 61.4,463.2 49.7,441.7 66.7,424 42.3,428.5 30.1,406.7 26.9,431.2 3,435.3 24.9,445.9 Z m 14.4,-90.9 20.5,-14.2 19.9,14.9 -7.5,-23.5 20.3,-14 -25,-0.3 -7.7,-23.6 -8,23.5 -24.2,-0.6 19.5,14.4 z m 103,-170.2 12.8,21.3 1.8,-24.3 24,-5.7 -22.9,-9.5 1.6,-24.7 -16.1,18.8 -22.3,-9.6 12.6,20.7 -16,18.6 z m 296.6,-145.6 18.4,-16.3 21.1,12.7 -10,-22.9 18.4,-16.6 -24.6,2.3 -9.3,-22.3 -5.4,23.6 -24.4,2.4 21.3,12.8 z m -352.1,672 5,-24.5 24.7,-3 -21.6,-11.8 4.6,-24 -18.1,17 -22,-11.5 10.6,22.3 -17.7,16.4 24,-3.1 z m 117.1,-589.7 8.6,23.4 6.5,-23.7 24.6,-0.8 -20.7,-13.7 6.4,-24.1 -19.3,15.3 -20.1,-13.5 8.3,22.7 -19.2,15.2 z m 72.8,-50.7 3.9,24.6 11,-22 24.3,3.9 -17.8,-17.5 10.9,-22.4 -22.1,11.3 -17,-17.1 4,23.8 -21.8,11.4 z m 80.2,-11.1 14.9,-19.6 23.2,8.4 -14.1,-20.5 14.9,-19.8 -23.8,6.8 -13.4,-20 -0.7,24.2 -23.6,6.9 23.5,8.7 z m -313.8,544 6,23.8 9.6,-23.2 24.9,1.8 -19,-15.6 9.2,-22.7 -21,13.3 -19.4,-15.6 6.1,24 -20.6,12.7 z m 27.8,-334.8 22.9,-10.1 16.6,18.5 -2.8,-24.4 22.4,-10 -24.3,-5 -3.1,-24.7 -12.3,21.5 -23.6,-5.1 16.3,18 z m 712.8,-150.5 6.4,23.7 8.9,-23.2 24.8,0.7 -19.2,-15.4 8.8,-22.5 -20.3,13.3 -19.1,-15.4 6.3,24.2 -20.9,13.6 z m 38.8,54.2 23.9,5.6 1.6,24.6 13,-21.2 24.3,5.5 -16,-18.9 12.9,-20.4 -22.4,9.2 -16,-18.7 1.6,24.9 z m -111.7,-101.3 10.8,22 4.2,-24.4 24.6,-3.9 -21.8,-11.6 4.2,-23.8 -17.3,17 -21.8,-11.4 10.8,22.5 -17.7,17.3 z m 185.8,177.8 -3,24.3 16.9,-18.3 22.7,10 -12.2,-21.6 16.6,-17.6 -23.8,4.8 -12.1,-21.6 -3.1,24.8 -24.3,4.7 z M 603.7,71.4 l 23.3,-8.3 14.7,19.8 -0.7,-25 23.5,-8.5 -23.7,-7.2 -0.4,-24.2 -13.8,20 -23.5,-7.1 14.9,20.1 z m 373.8,447 1.7,-24.6 -16.3,19.2 -23.1,-9.4 13.2,20.6 -15.8,18.9 24.1,-6.2 13.6,20.8 1.6,-24.7 23.5,-5.8 z m -16.5,105.2 24.2,-1.2 -20.3,-13.1 6.2,-23.7 -19.6,15.6 -20.8,-13.6 9.1,23 -19.3,15.4 24.9,-1.5 9.4,23 z m -47.9,83.3 4.7,24.5 10.8,-22.3 23.9,3.5 -17.6,-16.7 10.8,-22.1 -22.2,11.6 -18,-17.3 4.6,24 -21.6,11.6 z M 304.8,552.2 c -1.9,-1.5 -25.3,22.2 -40.5,38.8 -5.4,5.8 -8.9,11.2 -11,13.8 0,0 -6.7,11.1 -10.3,15.8 -3.6,4.7 -12.6,17.9 -16.6,23.7 -1.4,1.9 -4.9,10.3 -11.9,18.9 -3.5,4.3 -6.9,10 -13.7,18.7 -9,11.6 -15.8,21.1 -14.3,22.4 0.9,0.6 14.2,-15.4 28.4,-32.7 5.9,-7.2 12.3,-14.6 17.8,-21.6 2.7,-3.4 8.8,-9.1 10.8,-12 3.5,-5.2 7.3,-9.1 8.8,-10.4 7.9,-6.5 12.4,-6.9 15,-10.6 1.2,-1.8 16.9,-25.4 22.6,-35.1 5.2,-9.1 18.1,-26.8 15,-29.7 m 664.4,-149.8 -12.3,21.7 -24.4,-4.8 17,17.9 -11.8,21.4 22.4,-10.6 17.3,17.8 -3.1,-24.6 22,-10.1 -23.9,-4.4 z m -60,-64.3 20,14.2 -7.6,23.5 19.9,-14.8 20.6,14.3 -7.9,-23.5 19.6,-14.2 -24.1,0.2 -7.8,-23.4 -7.8,23.7 z M 520.1,59.4 541.3,46.9 559.5,63.2 554.2,38.9 575.4,26.2 550.8,23.7 545.9,0 l -9.7,22.2 -24.4,-2.3 18.5,16.7 z m 3.2,431.5 c 2.3,6.8 10.8,46.7 13.3,55 2.6,8.2 5.1,8.7 6.6,11.9 5,12.4 12.1,12.9 15.8,13.9 10.3,3.1 11.1,16.9 17.7,29.2 6.1,11.5 11.9,21.9 17.3,34.4 5.4,12.6 33,80.6 37.8,91 1.6,3.8 14.7,3.8 13.3,0 -3.3,-7.5 -10.9,-26.3 -15.6,-45.1 -3,-12.2 8.4,-3.5 1.2,-23.1 -3.4,-8.9 -9.7,-17.8 -13.3,-21.5 -3.7,-3.6 -7.2,-19 -10,-25.9 -3,-6.7 -1.5,-7.1 -7.6,-23.3 -4.6,-11.9 8.2,-7.9 1.1,-26.2 -4.6,-11.9 -28.3,-54.9 -31,-59.3 -1.3,-2.4 -5.9,-9.9 -11.5,-18.7 -5.3,-8.4 -9.7,-17.3 -12.2,-21.2 -4.9,-7.9 -13.9,-25.1 -19,-32.3 -5,-7.2 -11.3,-23.1 -13.9,-20.4 -2.6,2.3 7.6,26.1 11.8,41.2 4.4,15.1 1.2,21.2 -1.4,25.5 -2.4,4.3 -2.4,7.1 -10e-4,14.7 m 160.3,123.2 c 7,11.6 8.8,9.3 11.7,9.4 6.5,0.2 21.2,15.9 24.1,20.2 2.8,4.3 26.4,27.8 32.4,33.6 2.7,2.5 21.3,32.7 23.7,30.5 2.5,-2.2 -7.2,-16.8 -8.6,-20.1 -1.3,-3.2 -6.7,-7.9 -9.3,-14.8 -2.4,-6.7 -13.5,-23.7 -17.2,-29 -3.6,-5.4 -9.4,-17.4 -15.8,-24.9 -5.9,-6.6 -1.2,-8.5 -7.3,-14.3 -3.7,-3.5 -15.1,-13.6 -17.7,-15.7 -2.4,-2.2 -11.8,-10.5 -17.1,-15.1 -5.3,-4.5 -18.1,-13.4 -17.6,-19 0.2,-5.8 -2.6,-16.8 -6.9,-20.5 -3.1,-2.7 -12.2,-17.3 -22.7,-25.8 -5.3,-4.4 -16.5,-16.1 -25.2,-26.2 -8.1,-9.6 -14.2,-18.5 -16.1,-17.2 -2.7,1.8 9.4,18.8 10.7,20.8 1.3,1.9 15.4,26.3 16.7,32.7 1.5,6.5 27.7,50.6 33.3,64.3 3.2,8 21.2,18.7 28.8,31.2 m 114.6,42.7 c 0.9,-1.1 -1.6,-4.3 -3,-6.8 -1.5,-2.5 -10.4,-12.4 -12.1,-15.2 -1.5,-2.6 -13.1,-19.1 -17.1,-24.5 -7.3,-9.3 -0.6,-12.7 -4.4,-18.5 -1.5,-2.5 -10.8,-13.7 -21.6,-24.8 -5.6,-5.5 -11.8,-10.9 -17,-15.6 -8.5,-7.6 -15,-13.3 -16.1,-12.3 -1.5,1.5 3.5,7.6 5.7,10.4 2.2,2.7 5.6,7.6 10.1,12.9 7.3,8.7 0.5,15.3 7.5,22.3 1.2,1.2 20.4,22.7 25.2,26.7 7,6.3 32.2,36.1 33.9,37.8 3,2.8 8.1,8.8 9,7.7 M 400.4,515.2 c 1.4,-3 5.8,-12.3 5.6,-16 0,-0.7 -1.6,-1.8 -3,-0.4 -6.5,6.4 -19.6,29.1 -24.6,31.7 -11.2,5.4 -16.2,18.6 -19.5,23.9 -2.4,3.9 -5.5,10.1 -10.8,17.9 -4.7,6.8 -10,16.9 -12,20.4 -1.9,3.7 -2.7,7 1,7 3.6,0 0.8,5.9 -3.6,12.4 -2.5,3.8 -8.8,22 -10.6,27 -2.4,6.1 -2,13.9 -2.9,16.5 -0.8,2.4 -12.7,27.8 -15.8,33.4 -1.9,3.5 -1.4,5 -2.1,6.9 -1.1,2.4 0.3,3.1 2.1,1.4 2.3,-2.3 15,-21.6 18.9,-23.9 3.8,-2.4 7.3,-5.9 7.9,-14.3 0.6,-8.3 6,-10.6 10,-15.4 4.2,-4.8 9.7,-11.3 12.7,-18.1 2.8,-7 6.4,-1.7 12.8,-12.1 6.5,-10.5 21,-36.3 24.3,-41.3 3.2,-5 0.8,-12.2 0.4,-18.2 -0.2,-3.1 0.3,-10.9 2.1,-19.1 1.9,-7.3 5.3,-14.8 7.2,-19.7 m 55.6,-197.5 c 5.4,0 13.2,-9.8 17.4,-18.3 4.4,-9.2 6.6,-14.4 12.1,-26.2 0.2,-0.6 -0.3,-0.6 -0.9,-0.6 -6.2,0 -13.1,6.4 -17.5,11.5 -5.2,6.4 -13.7,18.4 -15,27 -0.9,4.6 1.1,6.5 3.8,6.5 m 138.3,8.3 c 6.1,3.1 13.7,-10.4 20.3,-22.6 6.5,-12.3 11.8,-27.7 6.2,-29.6 -6.2,-2.5 -14.2,9.5 -20.8,21.8 -6.5,12.3 -11.5,27.6 -5.8,30.4 M 358,317.7 c 5.5,0 13.1,-9.8 17.6,-18.3 4.3,-9.2 6.6,-14.4 11.9,-26.2 0.3,-0.6 -0.3,-0.6 -0.8,-0.6 -6.3,0 -13.1,6.4 -17.5,11.5 -5.2,6.4 -13.8,18.4 -15,27 -0.9,4.6 1.3,6.5 3.8,6.5 M 298,206.5 c 42.5,2 67.5,22.8 67.5,45.2 0,40 -63.4,46.8 -63.4,46.8 -11,55.4 -54.9,76.5 -85.3,76.2 -40.8,-0.3 -40.2,-33.4 -38.8,-37.6 1.7,-4.9 4.2,-9.4 9.4,-9.4 5.1,0 9.3,4.2 9.3,9.4 0,3.1 -1.6,6.1 -4.2,7.7 -5.4,3.3 -4.3,7.5 -4.3,7.5 0,17.6 22.7,18.9 28.7,18.9 60.8,0 53.8,-100.1 107.4,-134.1 2.4,-1.6 4.3,0 2.8,1.7 -16.7,21 -23,54.8 -23,54.8 25.8,0 42.9,-24.6 42.9,-41.7 0,-29.3 -26.4,-41.5 -48.9,-41.5 -62.6,0 -89.8,43.7 -89.8,67.5 0,23.9 15,32.5 25.9,32.5 15.2,0 19.9,-10.1 18.1,-15.1 -3,-7.8 1.1,-14.3 5.8,-14.3 1.9,0 8.1,-0.3 8.1,10.7 0,10.6 -15,21.2 -31.6,21.2 -16.4,0 -40.3,-8.9 -40.3,-35 0,-53 65.2,-73.2 103.7,-71.2 m 105.4,64.8 c -6.8,15.3 -11.8,26.3 -18,40.8 -0.5,1.4 -1,3.8 0.3,4.6 1.1,0.5 2.5,0.5 3.2,0 8,-3.9 15,-13.2 20.6,-23.8 l 9.9,-21.8 h 13.9 l -3.8,8.2 c -0.3,0.4 -0.3,0.7 0,0.4 4.3,-3.3 8.9,-8.2 14.5,-11.2 2.2,-1 7.3,-1 6.8,2.6 -0.3,3.2 -2.7,5.6 -4.1,8.7 -0.8,1.9 -1.6,4.4 -1.4,5.7 0.6,1.5 2.2,2.3 4.3,0.6 2.2,-1.4 3.9,-2.5 5.8,-4.1 3.5,-3.4 7.8,-6.5 12.7,-9.1 9.9,-4.6 23.3,-7.5 33.1,-1.3 -6.9,15.4 -12,26.8 -18.6,41.2 -1.2,2.5 -0.2,3.3 0.6,3.9 0.8,0.5 2.4,0.8 4.6,-0.4 5.4,-2.3 15,-12.9 18.8,-21.2 3.6,-7.7 6.9,-15.3 10.8,-24 h 14.3 l -4,8.4 0.6,0.3 c 3.8,-3.5 13.8,-11.5 21.1,-9.8 4.1,0.8 6.1,5.7 5.8,9.3 4.6,-3.4 9.4,-7.5 16.3,-9.2 9.9,-2.4 13.7,4.4 10.7,11 -3.9,9 -11.5,26.7 -15.8,35.8 -0.5,0.9 -0.5,3 0,3.4 1.1,0.9 3.1,0 3.9,-0.4 4.9,-4.2 7.6,-6.9 11.4,-12.3 1.1,-9.6 6.2,-18.4 13.4,-25.7 7.6,-8.5 19.6,-15 31.2,-11.2 4,1.3 6.8,5.4 7.9,9.5 0.5,2.2 1.1,3.3 1.1,5.8 6.1,4.4 14,-2.8 17.2,-8.2 0.9,-2.2 2,-4.6 2.5,-6.3 3.5,0.3 10.2,0 14.2,0 l -17.8,40.8 c -1.1,2.4 -1.4,3.8 -1.4,5.6 0,1.5 1.6,1.8 3.4,1.5 4.9,-0.9 12.9,-10.5 16.9,-18.6 4.5,-10.1 9,-18.6 13.4,-28.7 h 14.4 c -5.8,13.6 -12.3,28.1 -17,38.8 -1.1,2.2 -2.4,4.4 -1.7,7.4 0.6,1.4 2.5,1.2 3.7,0.6 6.2,-3.6 17,-15.6 20.7,-23 3.9,-8.8 6.8,-15.3 10.8,-23.8 h 14.8 l -3.5,8.5 c 5.5,-4.4 11.5,-9.1 18.6,-10.2 3.3,-0.4 7.3,-0.3 9.3,3.1 2.2,3.8 0.9,7.8 -0.8,11.5 -4.1,9.3 -8.8,19.4 -12.9,28.4 -0.8,2.2 -1,4.3 0.5,5.2 2.3,1.4 12.6,-4.9 17.9,-16.4 4.6,-10.1 7.7,-16.1 11.7,-25.9 h -7.6 l 2.1,-4.4 h 7.7 l 10.9,-23.8 H 798.1 l -10.6,23.8 h 11.1 l -2.1,4.4 h -10.9 c -6.3,13.3 -11.6,24.6 -17,37.1 -2.1,4.3 -4.3,11.5 -3.2,15.9 0.8,2.4 3.9,3.1 6.6,2.1 8.4,-2.9 14.2,-10.1 19.1,-17.7 0.3,-0.8 4.7,-0.3 4.4,0.4 -5.8,11.4 -18.3,23 -30.3,22.7 -3.6,0 -7.5,-2.2 -9.6,-5.3 -1,-1.6 -1.7,-2.9 -2.2,-4.8 -0.8,-3.1 -0.5,-6.6 0,-9.9 -6.5,5 -12.7,10.9 -21,12.6 -3.6,0.5 -8.2,-0.8 -9,-4.6 -0.5,-3 -0.3,-6.3 0.8,-9 5.2,-11.2 9.8,-21.3 14.7,-33.1 0.4,-0.5 0,-2.5 -0.6,-2.7 -0.8,-0.8 -3.2,-0.8 -5.4,0.9 -10.1,7.6 -15.3,17.5 -19.6,27.6 -3.1,6.8 -6.4,13.6 -9.6,20.3 h -14.5 c 1.7,-4.1 4.1,-9.6 6,-14 0,-0.3 -0.3,-0.3 -0.3,0 -6,5.9 -13.7,12.7 -21.2,14.8 -3.1,0.8 -6.1,-0.2 -7.7,-3.1 -1.7,-2.7 -2.2,-6.7 -0.8,-10.4 0,-0.2 -0.1,-0.2 -0.4,0 -5.4,5.5 -10.7,10.4 -17.9,12.9 -8.3,2.5 -15.7,-3.3 -10.5,-15.3 1.4,-3.2 5.5,-12.3 10,-23.2 -3.8,1.5 -8.4,1.5 -10.8,0.8 -0.3,0 -0.3,0 -0.3,0.3 -3.2,15.3 -12.3,29.2 -26.2,35.8 -6.8,3.3 -14.6,4.2 -21.3,-0.5 -3.3,-2.2 -5.2,-7.5 -5.5,-12.1 -7,7.1 -15.1,16.1 -25.9,14.6 -1.6,-0.4 -3,-1.8 -3.9,-3.3 -2.5,-4.1 -1,-8.5 0.5,-12.1 5.2,-10.9 9.5,-21.1 14.7,-33.3 0.8,-1.7 -1.5,-3 -3.2,-2.2 -5.2,2.5 -8.4,5 -11.2,9.4 -1.6,2.4 -3.1,5.1 -4.3,7.7 -4.8,10.5 -9.9,21.4 -14.3,32 h -14.8 c 6.6,-14.9 12.9,-29.4 19.4,-44.2 0.6,-1.4 0.3,-3.3 -0.5,-3.8 -1.3,-0.7 -3.6,0.4 -5.1,1.3 -3.5,2.4 -6.7,5.7 -9,9.9 -2.5,4.1 -4.7,8.1 -6.5,12.6 l -11.1,24.2 h -14.5 c 1.4,-3.2 4.1,-9.6 5.8,-12.7 0,-0.3 -0.3,-0.5 -0.3,-0.3 -7.9,6.5 -18.1,15 -25.4,13.6 -2.5,-0.3 -4.6,-2.4 -5.2,-4.6 -0.5,-2.8 -0.3,-5.3 0.3,-7.6 0,-0.3 -0.3,-0.3 -0.6,0 -6.3,6 -12,11 -20,12.9 -4.6,1 -8.9,-1.9 -10.3,-5.3 -2,-3.8 -2.5,-9.8 0.8,-16.7 1.9,-4.4 4.1,-9 6.8,-12.8 -1.6,0.8 -4.8,1.1 -7,0.8 -1.9,-0.3 -3.9,-1.7 -4.8,-3.1 -1.1,-1.2 -1.4,-3.7 -1.4,-5.4 0.3,-0.3 -0.6,-0.3 -1.2,0 -4.3,3.5 -6.3,7.7 -8.5,12.3 l -12.6,28.5 h -14.8 l 5.4,-12.1 c 0.3,-0.2 0,-0.5 -0.3,-0.2 -7.7,6.8 -16.9,14.6 -24.3,13.1 -2.1,-0.4 -4.4,-2.5 -4.9,-4.6 -0.5,-2.6 -0.3,-5.3 0,-7.7 h -0.5 c -6,6 -11.8,10.9 -19.6,12.6 -4.5,1.4 -8.5,-1.3 -10.2,-5.1 -2.2,-5.6 -1.4,-11.2 0.6,-16.5 5.7,-14.8 16.2,-25.4 30.3,-33.4 9,-5.1 23,-6.7 32.8,-1.6 M 85.6,500.3 c 0,62.5 16.6,133 46.2,190.8 53.5,-49.9 193.9,-208.4 210,-226.8 24.5,-28 35.1,-10.2 48.2,-25.8 7,-8.6 11.2,-11.9 14.2,-13.6 5,-3 10.8,-10.2 13.7,-12.3 2.9,-2.2 9.4,-10.8 14.4,-15.1 5.1,-4.3 15,-10.8 25.2,-19.4 10.1,-8.7 27.3,-28.8 46,-28.8 22.3,0 31.6,15.1 33.5,16.9 1.6,1.7 15.3,13.9 17.5,16.2 2.4,2.7 17.1,14.3 25.1,14.3 7.9,0 13.7,8.6 18,12.9 9.4,8.6 48.4,49.5 61.2,58.2 5.7,3.9 11.1,3.2 15.4,6.6 4.4,3.2 6.6,5.3 9,6.1 2.4,0.7 10.8,-1.5 20.5,10.7 4.5,3.1 5.7,3.6 5.7,3.6 0,0 13.2,12 18,20.4 4.3,7.3 102.9,138.3 138.3,185.2 32.8,-59.4 51.5,-127.6 51.5,-200.2 C 917.1,270.5 730.9,84.4 501.3,84.4 271.7,84.6 85.6,270.7 85.6,500.3" id="path2"/><path fill="#016bb1" d="m 841.5,755.9 v 4.7 h 9 v 24.6 h 5.7 v -24.6 h 8.9 v -4.7 z m 53.9,0 -7.9,20.8 -8.1,-20.8 h -8.2 v 29.3 h 5.3 v -22.9 h 0.1 l 8.9,22.9 h 3.9 l 8.7,-22.9 h 0.2 v 22.9 h 5.3 v -29.3 z" id="path6"/></g></svg>